<?xml version='1.0' encoding='UTF-8'?>
<!DOCTYPE svg PUBLIC "-//W3C//DTD SVG 1.0//EN" "http://www.w3.org/TR/2001/REC-SVG-20010904/DTD/svg10.dtd">
<svg viewBox="0 0 781 220" xmlns="http://www.w3.org/2000/svg" xmlns:inkspace="http://www.inkscape.org/namespaces/inkscape" xmlns:xlink="http://www.w3.org/1999/xlink">
  <defs id="defs_block">
    <filter height="1.504" id="filter_blur" inkspace:collect="always" width="1.1575" x="-0.07875" y="-0.252">
      <feGaussianBlur id="feGaussianBlur3780" inkspace:collect="always" stdDeviation="4.2" />
    </filter>
  </defs>
  <title>blockdiag</title>
  <desc />
  <rect fill="rgb(0,0,0)" height="50" stroke="rgb(0,0,0)" style="filter:url(#filter_blur);opacity:0.7;fill-opacity:1" width="175" x="67" y="46" />
  <rect fill="rgb(0,0,0)" height="50" stroke="rgb(0,0,0)" style="filter:url(#filter_blur);opacity:0.7;fill-opacity:1" width="175" x="67" y="136" />
  <rect fill="rgb(0,0,0)" height="50" stroke="rgb(0,0,0)" style="filter:url(#filter_blur);opacity:0.7;fill-opacity:1" width="175" x="306" y="46" />
  <rect fill="rgb(0,0,0)" height="50" stroke="rgb(0,0,0)" style="filter:url(#filter_blur);opacity:0.7;fill-opacity:1" width="175" x="545" y="46" />
  <rect fill="rgb(255,255,255)" height="50" stroke="rgb(0,0,0)" width="175" x="64" y="40" />
  <text fill="rgb(0,0,0)" font-family="sans-serif" font-size="11" font-style="normal" font-weight="normal" x="130" y="71">Student</text>
  <rect fill="rgb(255,255,255)" height="50" stroke="rgb(0,0,0)" width="175" x="64" y="130" />
  <text fill="rgb(0,0,0)" font-family="sans-serif" font-size="11" font-style="normal" font-weight="normal" x="130" y="161">Student</text>
  <rect fill="rgb(255,255,255)" height="50" stroke="rgb(0,0,0)" width="175" x="303" y="40" />
  <text fill="rgb(0,0,0)" font-family="sans-serif" font-size="11" font-style="normal" font-weight="normal" x="328" y="71">Private Shared Repository</text>
  <rect fill="rgb(255,255,255)" height="50" stroke="rgb(0,0,0)" width="175" x="542" y="40" />
  <text fill="rgb(0,0,0)" font-family="sans-serif" font-size="11" font-style="normal" font-weight="normal" x="608" y="71">Teacher</text>
  <path d="M 247 65 L 295 65" fill="none" stroke="rgb(0,0,0)" />
  <polygon fill="rgb(0,0,0)" points="240,65 247,61 247,69 240,65" stroke="rgb(0,0,0)" />
  <polygon fill="rgb(0,0,0)" points="302,65 295,61 295,69 302,65" stroke="rgb(0,0,0)" />
  <path d="M 478 65 L 534 65" fill="none" stroke="rgb(0,0,0)" />
  <polygon fill="rgb(0,0,0)" points="541,65 534,61 534,69 541,65" stroke="rgb(0,0,0)" />
  <path d="M 247 155 L 287 155" fill="none" stroke="rgb(0,0,0)" />
  <path d="M 287 155 L 287 65" fill="none" stroke="rgb(0,0,0)" />
  <path d="M 287 65 L 295 65" fill="none" stroke="rgb(0,0,0)" />
  <polygon fill="rgb(0,0,0)" points="240,155 247,151 247,159 240,155" stroke="rgb(0,0,0)" />
  <polygon fill="rgb(0,0,0)" points="302,65 295,61 295,69 302,65" stroke="rgb(0,0,0)" />
</svg>
